<svg width="72" height="72" viewBox="0 0 72 72" fill="none" xmlns="http://www.w3.org/2000/svg">
<g clip-path="url(#clip0_2704_2)">
<path d="M72 36.2001C72 62.2333 56.1104 73.3216 37.2414 71.8753C27.8069 71.1522 3.6996e-07 58.3766 0 36.2001C-3.6996e-07 14.0236 32.4058 1.62031 37.2414 0.524834C52.1379 -2.84986 72 10.1668 72 36.2001Z" fill="white"/>
<path d="M25.463 41.0557L30.0244 45.6171C33.2279 48.8206 34.3221 48.7679 37.4861 45.6171L44.8291 38.274C47.3867 35.7165 48.0327 34.0158 44.8291 30.8123L40.2677 26.2509C36.8533 22.8365 35.3636 23.6934 32.806 26.2509L25.463 33.594C22.3122 36.758 22.0485 37.6412 25.463 41.0557Z" stroke="#0095FF" stroke-width="2" stroke-linecap="round" stroke-linejoin="round"/>
<path d="M45.8046 42.6784L44.9346 44.1154C43.7085 46.1588 44.6577 47.8331 47.0439 47.8331C49.43 47.8331 50.3792 46.1588 49.1532 44.1154L48.2831 42.6784C47.5976 41.5447 46.477 41.5447 45.8046 42.6784Z" stroke="#0095FF" stroke-width="2" stroke-linecap="round" stroke-linejoin="round"/>
<path d="M23.1289 36.6772C30.4588 34.6866 38.1842 34.6206 45.5404 36.5059L46.1996 36.6772" stroke="#0095FF" stroke-width="2" stroke-linecap="round" stroke-linejoin="round"/>
</g>
<defs>
<clipPath id="clip0_2704_2">
<rect width="72" height="72" fill="white"/>
</clipPath>
</defs>
</svg>
