<svg width="18" height="17" viewBox="0 0 18 17" fill="none" xmlns="http://www.w3.org/2000/svg">
<path d="M17 1.94858C17 1.94858 15.8509 2.10472 14.7164 2.2062C14.2784 1.66559 13.6962 1.28241 13.0488 1.1085C12.4013 0.934594 11.7196 0.97834 11.0961 1.23383C10.4725 1.48931 9.93705 1.94421 9.56217 2.53699C9.18729 3.12978 8.99105 3.83185 9 4.54826V5.32895C7.72127 5.36365 6.4544 5.05818 5.31234 4.43976C4.17028 3.82134 3.1885 2.9092 2.45455 1.78463C2.45455 1.78463 -0.454545 8.8108 6.09091 11.9335C4.59488 13.029 2.80934 13.5766 1 13.4949C7.54545 17.3983 15.5455 13.4949 15.5455 4.48581C15.5441 4.26839 15.5246 4.05153 15.4873 3.83784C16.0308 3.2456 16.5362 2.6144 17 1.94858Z" stroke="white" stroke-width="2" stroke-linecap="round" stroke-linejoin="round"/>
</svg>
